<svg id="Layer_1" data-name="Layer 1" xmlns="http://www.w3.org/2000/svg" viewBox="0 0 227 65.74">
  <defs>
    <style>
      .cls-1 {
        fill: #1515cf;
      }

      .cls-2 {
        fill: none;
        stroke: #1515cf;
        stroke-miterlimit: 10;
        stroke-width: 3px;
      }
    </style>
  </defs>
  <title>Assets</title>
  <g>
    <path class="cls-1" d="M57.8,33.77V41H55.36V24.31H62c3.46,0,5.31,1.89,5.31,4.49a3.81,3.81,0,0,1-2.76,3.92C65.84,33.08,67,34.06,67,37v.74A12.36,12.36,0,0,0,67.26,41H64.88a11.14,11.14,0,0,1-.3-3.61V37c0-2.27-.63-3.27-3.56-3.27Zm0-2.05h3.52c2.44,0,3.49-.92,3.49-2.7s-1.11-2.65-3.28-2.65H57.8Z"/>
    <path class="cls-1" d="M72.48,35.32c0,2.3,1.17,4,3.17,4a2.64,2.64,0,0,0,2.79-1.78h2.37a5,5,0,0,1-5.23,3.71c-3.88,0-5.48-3.1-5.48-6.25,0-3.68,1.86-6.54,5.61-6.54,4,0,5.31,3.14,5.31,5.83,0,.38,0,.68,0,1Zm6.16-1.6c0-1.89-1-3.43-3-3.43s-2.94,1.43-3.14,3.43Z"/>
    <path class="cls-1" d="M93.42,38.22A21.06,21.06,0,0,0,93.58,41H91.33a5.81,5.81,0,0,1-.19-1.52c-.43.79-1.38,1.81-3.71,1.81-2.89,0-4.13-1.88-4.13-3.75,0-2.74,2.16-4,5.79-4h2v-1c0-1-.34-2.26-2.48-2.26-1.92,0-2.26.93-2.47,1.87H83.88c.16-1.77,1.26-3.68,4.82-3.67,3,0,4.72,1.24,4.72,4Zm-2.3-3.12H89.26c-2.36,0-3.56.67-3.56,2.28A2,2,0,0,0,88,39.47c2.79,0,3.16-1.89,3.16-4Z"/>
    <path class="cls-1" d="M107.75,23.38V37.55c0,1.14,0,2.27,0,3.43h-2.27c-.05-.33-.1-1.2-.11-1.64-.6,1.21-1.8,1.93-3.77,1.93-3.13,0-5.07-2.53-5.07-6.27s2.08-6.52,5.48-6.52c2.08,0,3,.82,3.36,1.48V23.38ZM99,34.93c0,2.84,1.31,4.37,3.18,4.37,2.75,0,3.31-2.07,3.31-4.57s-.52-4.28-3.16-4.28C100.25,30.45,99,32.09,99,34.93Z"/>
    <path class="cls-1" d="M132.82,34c0-3.05,0-6.2.11-8h-.1c-.72,2.83-3.23,9.69-5.08,14.92h-2.19c-1.4-4.32-4-12-4.73-15h-.08c.13,1.94.19,5.59.19,8.44V41h-2.31V24.31h3.68c1.78,5,3.94,11.47,4.49,13.66h0c.4-1.72,3-8.76,4.81-13.66h3.58V41h-2.41Z"/>
    <path class="cls-1" d="M150.08,34.85c0,3.56-2.06,6.42-5.82,6.42-3.55,0-5.69-2.71-5.69-6.37s2.11-6.42,5.83-6.42C147.84,28.48,150.08,31,150.08,34.85Zm-9.09,0c0,2.61,1.27,4.46,3.36,4.46s3.31-1.77,3.31-4.45-1.19-4.48-3.36-4.48S141,32.13,141,34.88Z"/>
    <path class="cls-1" d="M153.21,32.08c0-1.61,0-2.59,0-3.31h2.32c0,.33.07,1.33.07,2.42a4.23,4.23,0,0,1,4.07-2.71V30.8c-2.49.05-4.07,1.23-4.07,4.37V41h-2.36Z"/>
    <path class="cls-1" d="M163.68,35.32c0,2.3,1.17,4,3.17,4a2.64,2.64,0,0,0,2.79-1.78H172a5,5,0,0,1-5.23,3.71c-3.88,0-5.48-3.1-5.48-6.25,0-3.68,1.85-6.54,5.61-6.54,4,0,5.31,3.14,5.31,5.83a8.12,8.12,0,0,1,0,1Zm6.16-1.6c0-1.89-1-3.43-3-3.43s-2.93,1.43-3.13,3.43Z"/>
  </g>
  <rect class="cls-2" x="1.5" y="1.5" width="224" height="62.74" rx="31.37"/>
</svg>
