<svg id="Layer_1" data-name="Layer 1" xmlns="http://www.w3.org/2000/svg" viewBox="0 0 53.14 53.14">
  <defs>
    <style>
      .cls-1 {
        fill: none;
        stroke: #040416;
        stroke-miterlimit: 10;
        stroke-width: 2px;
      }

      .cls-2 {
        fill: #040416;
      }
    </style>
  </defs>
  <title>Assets</title>
  <g>
    <path class="cls-1" d="M1,26.57V10.62A9.39,9.39,0,0,1,3.2,4.48,9.26,9.26,0,0,1,8.84,1.17,9.83,9.83,0,0,1,10.56,1q16,0,32,0A9.3,9.3,0,0,1,49.4,3.89,9.25,9.25,0,0,1,52,8.79a9.25,9.25,0,0,1,.17,1.74q0,16.06,0,32.12a9.21,9.21,0,0,1-2.29,6.12,9.44,9.44,0,0,1-5.17,3.13,9,9,0,0,1-2.13.24h-32a9.27,9.27,0,0,1-6.26-2.35,9.33,9.33,0,0,1-3.17-5.58A9.15,9.15,0,0,1,1,42.55Q1,34.57,1,26.57Z"/>
    <path class="cls-2" d="M22.65,42.69h7.4v-.2c0-4.12,0-8.24,0-12.36,0-.24,0-.49,0-.73a3.74,3.74,0,0,1,.62-1.61,3.55,3.55,0,0,1,1.76-1.51,3.92,3.92,0,0,1,2.09-.17,2.64,2.64,0,0,1,1.66,1,3.7,3.7,0,0,1,.66,1.44,8.78,8.78,0,0,1,.24,2.16c0,4,0,7.89,0,11.83v.18h7.34v-.21c0-4.09,0-8.18,0-12.27,0-.66-.05-1.33-.11-2a10.24,10.24,0,0,0-.8-3.2,7.32,7.32,0,0,0-2.69-3.31,7.91,7.91,0,0,0-3.64-1.21,8.87,8.87,0,0,0-2.57.12,6.31,6.31,0,0,0-2.82,1.28,8.18,8.18,0,0,0-1.65,1.87.91.91,0,0,1-.11.16H30v-3H22.65ZM11.93,20.92V42.69h7.26V20.92Zm3.47-2.84a9.62,9.62,0,0,0,1.18-.18,3.47,3.47,0,0,0,2.5-2,3.66,3.66,0,0,0,.08-2.83,3.3,3.3,0,0,0-1.84-2,4.67,4.67,0,0,0-3.41-.14,3.44,3.44,0,0,0-2.07,1.74,3.61,3.61,0,0,0-.33,2.37A3.41,3.41,0,0,0,13,17.36,4.4,4.4,0,0,0,15.4,18.08Z"/>
  </g>
</svg>
