<svg id="Layer_1" data-name="Layer 1" xmlns="http://www.w3.org/2000/svg" viewBox="0 0 180 35.9">
  <defs>
    <style>
      .cls-1 {
        isolation: isolate;
      }

      .cls-2 {
        fill: #040416;
      }
    </style>
  </defs>
  <title>Assets</title>
  <g id="Abacus">
    <g class="cls-1">
      <path class="cls-2" d="M23.07,31.86H23a11.12,11.12,0,0,1-8.9,4C5.15,35.9,0,28.62,0,21.62,0,15,5.54,7.34,14.34,7.34c4,0,7.11,1.73,8.62,4h.11V8.06H28.9V35.17H23.07Zm-8.29-1.45a8.8,8.8,0,0,0,0-17.59,8.8,8.8,0,0,0,0,17.59Z"/>
      <path class="cls-2" d="M34.05,0h5.82V11.37H40c1.4-2.24,5-4,8.85-4A13.89,13.89,0,0,1,62.94,21.62,13.9,13.9,0,0,1,48.83,35.9c-3.81,0-7.45-1.8-8.85-4h-.11v3.31H34.05ZM48.33,12.82c-4.88,0-8.46,3.76-8.46,8.8s3.58,8.79,8.46,8.79,8.45-3.75,8.45-8.79S53.2,12.82,48.33,12.82Z"/>
      <path class="cls-2" d="M88.81,31.86H88.7a11.12,11.12,0,0,1-8.9,4c-8.91,0-14.06-7.28-14.06-14.28,0-6.67,5.54-14.28,14.34-14.28,4,0,7.11,1.73,8.62,4h.11V8.06h5.82V35.17H88.81Zm-8.29-1.45a8.8,8.8,0,1,0-8.62-8.79A8.72,8.72,0,0,0,80.52,30.41Z"/>
      <path class="cls-2" d="M120.34,16.91a8.05,8.05,0,0,0-7.06-4.09,8.64,8.64,0,0,0-8.79,8.8,8.63,8.63,0,0,0,8.79,8.79,8.1,8.1,0,0,0,7.06-4.09l5.09,3a14.5,14.5,0,0,1-12.15,6.56c-9.46,0-15-7.12-15-14.28s5.49-14.28,15-14.28a14,14,0,0,1,12.15,6.55Z"/>
      <path class="cls-2" d="M128.58,8.06h5.82V23.24a6.56,6.56,0,1,0,13.11,0V8.06h5.82V23.74c0,7.62-5.93,12.16-12.37,12.16s-12.38-4.54-12.38-12.16Z"/>
      <path class="cls-2" d="M160.29,27.1a12.55,12.55,0,0,0,8.51,4c3.36,0,5.38-1.9,5.38-3.42,0-1.79-1.4-2.74-3.53-3.13l-3.31-.62c-7.61-1.4-9.74-3.86-9.74-7.73,0-4.59,3.86-8.84,10.64-8.84A17.69,17.69,0,0,1,179,11.09l-3.3,4.09a11.2,11.2,0,0,0-7.28-3c-2.52,0-5,1.23-5,3.42,0,1.62,1.29,2.46,3.53,2.85l5.88,1.12c4.82.9,7.17,3.2,7.17,7.23s-3.25,9.13-11.48,9.13a18.27,18.27,0,0,1-12.21-4.76Z"/>
    </g>
  </g>
</svg>
