<svg id="Layer_1" data-name="Layer 1" xmlns="http://www.w3.org/2000/svg" viewBox="0 0 224 62.74">
  <defs>
    <style>
      .cls-1 {
        fill: #1515cf;
      }

      .cls-2 {
        fill: #fff;
      }
    </style>
  </defs>
  <title>Assets</title>
  <g>
    <rect class="cls-1" width="224" height="62.74" rx="31.37"/>
    <g>
      <path class="cls-2" d="M63.72,39.49H61.84a9.6,9.6,0,0,1-.22-2.15c-.76,1.2-2.24,2.38-5.12,2.38-4.81,0-7.39-3.65-7.39-8.39,0-5,2.77-8.75,7.84-8.75,3.95,0,6.41,2.15,6.87,5.11H61.35a4.17,4.17,0,0,0-4.45-3.08c-3.78,0-5.21,3-5.21,6.6,0,3.33,1.46,6.46,5.14,6.46s4.47-2.42,4.47-5v-.17H56.81v-2.1h6.91Z"/>
      <path class="cls-2" d="M69.34,33.83c0,2.3,1.17,4,3.17,4a2.64,2.64,0,0,0,2.79-1.78h2.37a5,5,0,0,1-5.23,3.71c-3.88,0-5.48-3.1-5.48-6.25C67,29.84,68.82,27,72.58,27c4,0,5.3,3.14,5.3,5.83,0,.38,0,.68,0,1Zm6.16-1.6c0-1.9-1-3.43-3-3.43s-2.94,1.42-3.14,3.43Z"/>
      <path class="cls-2" d="M79.58,27.27h2.07V23.72H84v3.55h2.64v1.88H84v6.94c0,1.13.29,1.7,1.38,1.7a5.25,5.25,0,0,0,1-.09v1.73a6.09,6.09,0,0,1-1.92.22c-2,0-2.82-1-2.82-3.09V29.15H79.58Z"/>
      <path class="cls-2" d="M97.62,34.8c.44,1.94,1.77,3,4.1,3s3.46-1.13,3.46-2.64-.82-2.48-4.07-3.26c-4-1-5.36-2.38-5.36-4.71,0-2.55,1.89-4.56,5.66-4.56,4,0,5.71,2.31,5.94,4.54h-2.51c-.28-1.39-1.14-2.59-3.52-2.59-1.92,0-3,.85-3,2.37s.9,2.07,3.78,2.77c4.77,1.15,5.65,3,5.65,5.17,0,2.76-2,4.86-6.19,4.86s-6.09-2.25-6.44-4.9Z"/>
      <path class="cls-2" d="M109.46,27.27h2.07V23.72h2.35v3.55h2.64v1.88h-2.64v6.94c0,1.13.29,1.7,1.38,1.7a5.25,5.25,0,0,0,1-.09v1.73a6.13,6.13,0,0,1-1.92.22c-2,0-2.82-1-2.82-3.09V29.15h-2.07Z"/>
      <path class="cls-2" d="M128.51,36.73a20.7,20.7,0,0,0,.17,2.76h-2.26a7,7,0,0,1-.19-1.52c-.43.79-1.38,1.8-3.71,1.8-2.89,0-4.12-1.88-4.12-3.75,0-2.74,2.16-4,5.78-4h2V31c0-1-.34-2.26-2.49-2.26-1.92,0-2.26.94-2.47,1.88H119c.17-1.78,1.27-3.69,4.82-3.68,3,0,4.72,1.24,4.72,4Zm-2.3-3.12h-1.86c-2.36,0-3.56.66-3.56,2.28A2,2,0,0,0,123.05,38c2.79,0,3.16-1.88,3.16-4Z"/>
      <path class="cls-2" d="M132.5,30.59c0-1.62,0-2.6,0-3.32h2.31c0,.33.07,1.34.07,2.42A4.24,4.24,0,0,1,138.94,27V29.3c-2.5.05-4.08,1.23-4.08,4.37v5.82H132.5Z"/>
      <path class="cls-2" d="M140.75,27.27h2.07V23.72h2.36v3.55h2.64v1.88h-2.64v6.94c0,1.13.28,1.7,1.37,1.7a5.19,5.19,0,0,0,1-.09v1.73a6.07,6.07,0,0,1-1.91.22c-2,0-2.83-1-2.83-3.09V29.15h-2.07Z"/>
      <path class="cls-2" d="M151.92,33.83c0,2.3,1.17,4,3.17,4a2.63,2.63,0,0,0,2.79-1.78h2.37A5,5,0,0,1,155,39.77c-3.87,0-5.48-3.1-5.48-6.25,0-3.68,1.86-6.54,5.62-6.54,4,0,5.3,3.14,5.3,5.83,0,.38,0,.68,0,1Zm6.16-1.6c0-1.9-1-3.43-3-3.43s-2.94,1.42-3.13,3.43Z"/>
      <path class="cls-2" d="M174.09,21.88V36.05c0,1.14,0,2.27,0,3.44h-2.27a15.91,15.91,0,0,1-.11-1.65c-.6,1.21-1.8,1.93-3.77,1.93-3.13,0-5.07-2.53-5.07-6.27S165,27,168.38,27c2.08,0,3,.82,3.36,1.48V21.88Zm-8.75,11.55c0,2.84,1.31,4.38,3.18,4.38,2.75,0,3.31-2.08,3.31-4.58S171.31,29,168.67,29C166.59,29,165.34,30.59,165.34,33.43Z"/>
    </g>
  </g>
</svg>
