<svg id="Layer_1" data-name="Layer 1" xmlns="http://www.w3.org/2000/svg" viewBox="0 0 227 65.74">
  <defs>
    <style>
      .cls-1 {
        fill: #1515cf;
      }

      .cls-2 {
        fill: none;
        stroke: #1515cf;
        stroke-miterlimit: 10;
        stroke-width: 3px;
      }
    </style>
  </defs>
  <title>Assets</title>
  <g>
    <g>
      <path class="cls-1" d="M61.13,36.25c-.72,2.88-2.88,5-6.73,5-5,0-7.56-3.78-7.56-8.49,0-4.54,2.53-8.64,7.66-8.64,4,0,6.16,2.31,6.64,5.1H58.66a4,4,0,0,0-4.26-3.07c-3.54,0-5,3.22-5,6.53s1.35,6.54,5.08,6.54a4.1,4.1,0,0,0,4.15-3Z"/>
      <path class="cls-1" d="M64.29,41.05V23.45h2.36v17.6Z"/>
      <path class="cls-1" d="M70.63,23.45H73v2.71H70.63Zm0,5.39H73V41.05H70.63Z"/>
      <path class="cls-1" d="M78.5,35.39c0,2.3,1.17,4,3.17,4a2.65,2.65,0,0,0,2.79-1.78h2.37a5,5,0,0,1-5.23,3.71c-3.88,0-5.48-3.1-5.48-6.26,0-3.67,1.86-6.53,5.61-6.53,4,0,5.31,3.13,5.31,5.83,0,.38,0,.68,0,1Zm6.16-1.6c0-1.89-1-3.43-3-3.43s-2.94,1.43-3.14,3.43Z"/>
      <path class="cls-1" d="M90.17,31.91c0-1.05,0-2.14,0-3.07h2.29c.06.35.09,1.55.09,1.92a3.81,3.81,0,0,1,3.79-2.21c2.32,0,4.07,1.45,4.07,4.66v7.84H98V33.5c0-1.75-.67-2.95-2.47-2.95-2.13,0-3,1.57-3,4v6.53H90.17Z"/>
      <path class="cls-1" d="M102.68,28.84h2.07V25.29h2.36v3.55h2.64v1.88h-2.64v6.93c0,1.14.28,1.7,1.37,1.7a4.51,4.51,0,0,0,1-.09V41a6.07,6.07,0,0,1-1.91.22c-2,0-2.83-1-2.83-3.09V30.72h-2.07Z"/>
      <path class="cls-1" d="M119.41,24.38h2.48V39h8.62l-.33,2.09H119.41Z"/>
      <path class="cls-1" d="M143.86,34.92c0,3.56-2.05,6.42-5.82,6.42-3.55,0-5.69-2.71-5.69-6.37s2.12-6.42,5.84-6.42C141.62,28.55,143.86,31.09,143.86,34.92Zm-9.09,0c0,2.62,1.27,4.47,3.36,4.47s3.31-1.77,3.31-4.45-1.18-4.48-3.36-4.48S134.77,32.2,134.77,34.94Z"/>
      <path class="cls-1" d="M157.41,39.88c0,3.92-1.59,6.19-5.7,6.19-3.85,0-4.94-2.15-5.14-3.76H149a2.63,2.63,0,0,0,2.84,1.93c2.66,0,3.3-1.68,3.3-4.41v-.91A3.7,3.7,0,0,1,151.36,41c-3.05,0-5.05-2.49-5.05-6,0-4,2.31-6.42,5.29-6.42,2.28,0,3.25,1.07,3.51,1.84,0-.51.08-1.31.1-1.55h2.23c0,.78,0,2.35,0,3.52Zm-8.66-5c0,2.49,1.28,4.14,3.18,4.14,2.52,0,3.25-1.7,3.25-4.28s-.66-4.2-3.18-4.2C149.89,30.52,148.75,32.26,148.75,34.86Z"/>
      <path class="cls-1" d="M161.37,23.45h2.35v2.71h-2.35Zm0,5.39h2.35V41.05h-2.35Z"/>
      <path class="cls-1" d="M167.71,31.91c0-1.05,0-2.14,0-3.07H170c.06.35.09,1.55.09,1.92a3.81,3.81,0,0,1,3.79-2.21c2.32,0,4.07,1.45,4.07,4.66v7.84h-2.35V33.5c0-1.75-.67-2.95-2.47-2.95-2.13,0-3,1.57-3,4v6.53h-2.36Z"/>
    </g>
    <rect class="cls-2" x="1.5" y="1.5" width="224" height="62.74" rx="31.37"/>
  </g>
</svg>
