<svg id="Layer_1" data-name="Layer 1" xmlns="http://www.w3.org/2000/svg" viewBox="0 0 513.34 415.9">
  <defs>
    <style>
      .cls-1 {
        fill: #fff;
      }

      .cls-2 {
        fill: #1617cb;
      }
    </style>
  </defs>
  <title>Assets</title>
  <g>
    <path class="cls-1" d="M276.4,185.4c2.14-1.28,4.15-2.54,6.21-3.71a62.48,62.48,0,0,1,15.87-6.8,35.25,35.25,0,0,1,7.36-1,24.93,24.93,0,0,1,7.34,1c.15,0,2.14,3.82,2.09,5.89a30.09,30.09,0,0,0-10.64-1.67c-5.64.15-9.85,1.89-13.59,3.44-4.81,2-9.42,5.1-13.1,7.33-.85.51-1.54.12-2,.42"/>
    <g>
      <path class="cls-1" d="M360.31,154.26a80.74,80.74,0,0,1,11.26-10.21,29.08,29.08,0,0,1,9.35-4.74,14.41,14.41,0,0,1,9.15.39,22.18,22.18,0,0,1,7.26,4.77,54,54,0,0,1,7.5,9,146.24,146.24,0,0,1,9.34,16c4.07,7.91,7.86,16,11.46,24.1.85,1.91,1.57,3.45,2.48,5.44.71-.75,1.29-1.4,1.9-2,5.13-5.21,10.16-10.53,15.6-15.44A87.2,87.2,0,0,1,456,173.33c4-2.61,8.2-4.8,13-5.5a17,17,0,0,1,4.88,0c-.07,1.67-.13,3.27-.21,5a16.9,16.9,0,0,0-2.14-.15,23.46,23.46,0,0,0-6.66,1.33,43.27,43.27,0,0,0-10.88,6.2A122.19,122.19,0,0,0,440.68,192c-3.36,3.37-6.65,6.8-10,10.2-.78.81-.8.82-.3,1.86,2.47,5.14,4.89,10.31,7.45,15.41A134.64,134.64,0,0,0,447,235.22a48.35,48.35,0,0,0,8.17,9.54,17.93,17.93,0,0,0,6.14,3.63,6.78,6.78,0,0,1,.79.37,36.13,36.13,0,0,1-.6,4.84c-.77-.28-1.41-.48-2-.74a24,24,0,0,1-7.54-5.38,51.26,51.26,0,0,1-5.1-6,129.15,129.15,0,0,1-11-18.44c-2.7-5.38-5.25-10.84-7.86-16.27l-.66-1.33a11,11,0,0,1-.83,1.11q-3,3-6,6a117,117,0,0,1-10.35,9.18,51.92,51.92,0,0,1-10.71,6.71,22.26,22.26,0,0,1-10.68,2.2,28.59,28.59,0,0,1-7.79-1.76A58,58,0,0,1,366.77,221a185.3,185.3,0,0,1-15-12.65c-4.73-4.3-9.44-8.63-14.18-12.93-1.21-1.09-2.49-2.1-3.74-3.15-.4.38-.76.69-1.08,1-1.79,1.94-3.53,3.92-5.37,5.82A64.62,64.62,0,0,1,316,208.76c-1.41.91-2.9,1.67-4.39,2.53v7.28c.22.14.41.28.62.39l17.22,9.16,34.13,18.13,30.22,16.07,34,18.1,34,18.08,40.57,21.57c.83.44,1.64.93,2.48,1.41,1.85-.55,3.75-1.14,5.67-1.69a7.28,7.28,0,0,1,1.35-.14A2.51,2.51,0,0,0,512,319c0-.6-.11-1.19-.1-1.79.06-3.83.17-7.66.21-11.5.09-9,0-18,.21-27,.23-9.19.19-18.39.27-27.58l.24-27.21.24-27.46c.08-9.07.18-18.14.24-27.22,0-6.16,0-12.32,0-18.48a7.84,7.84,0,0,0-.08-.82L322.5,48.55c-3.29,1.2-6.58,2.13-9.66,3.31.06.9.15,1.65.14,2.4,0,4.08-.13,8.15-.17,12.23,0,2.92,0,5.84-.05,8.75-.06,6.2-.14,12.39-.19,18.59q-.13,14.15-.25,28.3c0,1.88,0,3.76,0,5.64q-.11,10.55-.19,21.1c0,4,0,7.92,0,11.88,0,2.24,0,4.48,0,6.72,0,1.1,0,2.21-.07,3.36a4.1,4.1,0,0,1-.8,0,26.55,26.55,0,0,0-7-.49,36.9,36.9,0,0,0-6.94,1.19A62.62,62.62,0,0,0,282.47,178c-1.89,1.09-3.75,2.26-5.71,3.45-1.69-2.34-5.72-6.78-5.72-6.78L260.4,159c0-1.59-.5-2.41-.5-3.55,0-13.4.07-26.79-.19-40.18-.08-4,0-8.08,0-12.12q-.09-28.74-.2-57.47c0-9.67,0-19.35,0-29V15.38a25,25,0,0,0-4.29-2C247.78,11,241,7.14,234.55,2.91c-1.64-1.07-3.44-1.83-5.17-2.74a1.2,1.2,0,0,0-1.26.09c-.18.13-.38.24-.57.36L206.1,14.45l-4.53,2.95v1.36l0,20.28q0,15.54,0,31.07,0,10.32.07,20.64c0,6.48.11,13,.12,19.43,0,10.8,0,21.6.05,32.39q.07,21.66.2,43.31,0,9.48,0,19,0,16,0,31.92v1.11c-.06,0,5.47-14.32,25.11-31.48,8.85-7.73,19.4-5.11,32.66-13.49,3.84-2.43,7.59-5.17,11.69-7.94,0,0-16.5-22.61-16.27-22.76s3.56-3.07,4.33-2.15c4.12,4.93,15.07,22.81,16,22.16,6.43-4.29,19.44-6.24,26.7-10.6,2.34-1.41,10.42,1.88,12.74.45,22.11-13.63,38-32.59,66.35-38,29.1-5.59,63.84,20.46,98.07,20.46,0,58.31,42,61.29-7,100.64-29.37,23.59-79-10-119.35-24.28a248.69,248.69,0,0,1-41.58-19.54c-9.3-5.35-9.36-1.36-15.54-5.17-1.46-.9-10.86-9.41-12.16-10.17-3.16-1.85-5.39-4.53-7.71-5.38l-14.89,10.48c-.62.43-1.27.83-1.91,1.23h0c-1.35.84-2.69,1.71-4.06,2.54a78,78,0,0,1-13.8,6.89,34.53,34.53,0,0,1-13.11,2.34c-.74,0-1.48-.16-2.18-.24a18.94,18.94,0,0,1,.35-4.86h.57c1.6,0,3.21.1,4.8-.05A37.86,37.86,0,0,0,242.88,206a88.91,88.91,0,0,0,14.61-7.93c5.14-3.37,10.22-6.85,15.32-10.29a4.29,4.29,0,0,0,.52-.45L271.58,185c-3.91,2.56-7.61,5.27-11.61,7.76v-32c5.57,8.4,10.73,16.74,16.56,24.67,1.33-.82,2.23-1.37,3.52-2.19a64.84,64.84,0,0,1,5.84-3.35c5.54-2.79,11.17-5.09,17.33-5.7a28,28,0,0,1,10.18,1,46.36,46.36,0,0,1,13.52,6.54c2.22,1.49,4.36,3.1,6.57,4.69.14-.15.3-.32.45-.5m2.61,3.06,1.36,1.21c1.59,1.39,3.21,2.76,4.77,4.18,5.45,4.94,10.86,9.92,16.32,14.84a103,103,0,0,0,12.69,9.81A44.27,44.27,0,0,0,384.9,225a19.46,19.46,0,0,0,7.36.5,24.32,24.32,0,0,0,7.59-2.47,59.8,59.8,0,0,0,12.91-9.06c2.9-2.57,5.69-5.26,8.49-7.94,1.47-1.4,2.86-2.89,4.32-4.37l-.5-1.13q-2.91-6.37-5.82-12.73c-3.44-7.43-7-14.8-11-21.92a85.93,85.93,0,0,0-9.85-14.43,29.18,29.18,0,0,0-6-5.32,13,13,0,0,0-10.74-1.88,26.62,26.62,0,0,0-8.94,4.46,63.12,63.12,0,0,0-9.63,8.62c-3.16,3.45-6.34,6.88-9.33,10.46-5,6-9.81,12-14.7,18Zm-57.23.13a4.23,4.23,0,0,0,.25.43,79.62,79.62,0,0,0,11.28,12.22,33.65,33.65,0,0,0,6.56,4.38,14.45,14.45,0,0,0,12.15.8,32.89,32.89,0,0,0,8.63-5.08,95.46,95.46,0,0,0,11.88-11.48c.15-.17.27-.36.46-.62-5.7-4.31-11.6-8.08-18.65-9.88,0,.33.07-8.55.07-8.36,0,1.06-9.46.51-17.78,3.18s-15.56,8.59-16,8.06C277.42,183.09,280.07,188.53,279.32,189Z"/>
      <path class="cls-2" d="M0,368.38a3,3,0,0,0,.23-.63c.11-.95.18-1.9.28-2.91.29-.2.57-.42.87-.6l34-21.39c6.89-4.33,13.78-8.68,20.7-13a1.75,1.75,0,0,0,.93-1.73q-.06-49.32-.07-98.63,0-6.3,0-12.6v-1c.3-.2.58-.41.88-.6q13.57-8.56,27.15-17.15a1.68,1.68,0,0,1,1.88-.11q7.48,3.9,15,7.74l15.45,7.92.76.42v76.7c.58-.35.94-.56,1.3-.79,4.74-3,9.46-6,14.21-8.92a1.65,1.65,0,0,0,.9-1.63c0-5.88,0-11.76,0-17.64v-1.39l28.78-18.08,5.05,2.62,11.56,6a1.37,1.37,0,0,0,1.55,0q10.23-6.48,20.48-12.9a3.51,3.51,0,0,0,.26-.24v-1.11q0-16,0-31.92,0-9.48,0-19-.09-21.66-.2-43.31c0-10.79,0-21.59-.05-32.39,0-6.48-.09-13-.12-19.43q-.06-10.32-.07-20.64,0-15.54,0-31.07l0-20.28V17.4l4.53-2.95L227.55.62c.21-.13.41-.25.61-.39a1,1,0,0,1,1.22-.06c.92.49,1.86.93,2.79,1.4l25.75,13,1.5.79v1.24c0,9.68,0,19.36,0,29q.09,28.74.2,57.47c0,4,0,8.08,0,12.12.26,13.39.18,26.78.19,40.18a2.86,2.86,0,0,0,.48,1.68q7,10.53,14,21.07c.75,1.12,1.58,2.19,2.39,3.31,2-1.19,3.82-2.36,5.71-3.45a62.62,62.62,0,0,1,14.74-6.51,36.9,36.9,0,0,1,6.94-1.19,26.55,26.55,0,0,1,7,.49,4.1,4.1,0,0,0,.8,0c0-1.15.06-2.26.07-3.36,0-2.24,0-4.48,0-6.72,0-4,0-7.92,0-11.88q.07-10.56.19-21.1c0-1.88,0-3.76,0-5.64q.12-14.16.25-28.3c.05-6.2.13-12.39.19-18.59,0-2.91,0-5.83.05-8.75,0-4.08.13-8.15.17-12.23,0-.75-.08-1.5-.14-2.4,3.08-1.18,6.37-2.11,9.66-3.31L513.26,150a7.84,7.84,0,0,1,.08.82c0,6.16,0,12.32,0,18.48-.06,9.08-.16,18.15-.24,27.22L512.84,224l-.24,27.21c-.08,9.19,0,18.39-.27,27.58-.24,9-.12,18-.21,27,0,3.84-.15,7.67-.21,11.5,0,.6.1,1.19.1,1.79a2.51,2.51,0,0,1-.12.64,7.28,7.28,0,0,0-1.35.14c-1.92.55-3.82,1.14-5.67,1.69-.84-.48-1.65-1-2.48-1.41L461.82,298.5l-34-18.08-34-18.1-30.22-16.07-34.13-18.13L312.21,219c-.21-.11-.4-.25-.62-.39v-7.28c1.49-.86,3-1.62,4.39-2.53a64.62,64.62,0,0,0,11.38-9.69c1.84-1.9,3.58-3.88,5.37-5.82.32-.34.68-.65,1.08-1,1.25,1.05,2.53,2.06,3.74,3.15,4.74,4.3,9.45,8.63,14.18,12.93a185.3,185.3,0,0,0,15,12.65,58,58,0,0,0,14.16,7.93,28.59,28.59,0,0,0,7.79,1.76,22.26,22.26,0,0,0,10.68-2.2,51.06,51.06,0,0,0,10.45-6.51,116.2,116.2,0,0,0,10.6-9.37q3-3,6-6a11,11,0,0,0,.83-1.11l.66,1.33c2.61,5.43,5.16,10.89,7.86,16.27a135.13,135.13,0,0,0,9.59,16.45,56.39,56.39,0,0,0,7,8.49,23.25,23.25,0,0,0,7,4.89c.62.26,1.26.46,2,.74a36.13,36.13,0,0,0,.6-4.84,6.78,6.78,0,0,0-.79-.37,17.93,17.93,0,0,1-6.14-3.63,48.35,48.35,0,0,1-8.17-9.54,134.64,134.64,0,0,1-9.13-15.73c-2.56-5.1-5-10.27-7.45-15.41-.5-1-.48-1.05.3-1.86,3.33-3.4,6.62-6.83,10-10.2A122.19,122.19,0,0,1,454,180.17a43.27,43.27,0,0,1,10.88-6.2,23.46,23.46,0,0,1,6.66-1.33,16.9,16.9,0,0,1,2.14.15c.08-1.7.14-3.3.21-5a17,17,0,0,0-4.88,0c-4.82.7-9,2.89-13,5.5a87.2,87.2,0,0,0-10.42,8.25c-5.44,4.91-10.47,10.23-15.6,15.44-.61.62-1.19,1.27-1.9,2-.5-1.09-.95-2-1.39-3-3.81-8.34-7.57-16.71-11.72-24.9a155,155,0,0,0-10.17-17.63,54,54,0,0,0-7.5-9,22.18,22.18,0,0,0-7.26-4.77,14.41,14.41,0,0,0-9.15-.39,29.08,29.08,0,0,0-9.35,4.74,80.74,80.74,0,0,0-11.26,10.21c-5.22,5.58-10,11.51-14.83,17.44-3.82,4.73-7.69,9.41-11.54,14.1-.15.18-.31.35-.45.5-2.21-1.59-4.35-3.2-6.57-4.69a46.36,46.36,0,0,0-13.52-6.54,28,28,0,0,0-10.18-1,42.75,42.75,0,0,0-12.75,3.54,92.88,92.88,0,0,0-12.09,6.56l-1.85,1.14c-5.83-7.93-11-16.27-16.56-24.67v32c4-2.49,7.7-5.2,11.61-7.76l1.75,2.41a4.29,4.29,0,0,1-.52.45c-5.1,3.44-10.18,6.92-15.32,10.29A88.91,88.91,0,0,1,242.88,206a37.86,37.86,0,0,1-10.95,2.88c-1.59.15-3.2,0-4.8.05h-.57a18.94,18.94,0,0,0-.35,4.86c.7.08,1.44.21,2.18.24a34.53,34.53,0,0,0,13.11-2.34,78,78,0,0,0,13.8-6.89c1.37-.83,2.71-1.7,4.06-2.54.2-.13.41-.23.74-.42v25.34l67.75,35.35c-.1,1.23-.17,2.46-.33,3.67,0,.28-.4.58-.68.76-1.41.92-2.84,1.79-4.26,2.69l-37,23.28-37.92,23.88-43,27q-14.81,9.31-29.61,18.65-17.39,11-34.79,21.88l-42.5,26.73c-2.16,1.36-4.33,2.72-6.48,4.09a6.84,6.84,0,0,0-.77.67h-.24a5.11,5.11,0,0,0-.48-.33q-8.43-4.41-16.87-8.81l-18.46-9.62L23.46,381,1.72,369.62c-.55-.29-1.14-.51-1.72-.76Zm90,40.16L321.73,262.71s0-.06.06-.1,0-.07,0-.23l-61.62-32.15v42.84q-13.68,8.83-27.21,17.55l-30.59-15.48c0-.25,0-.41,0-.57-.05-5.12-.11-10.23-.13-15.35,0-5.36,0-10.72,0-16.08,0-.41,0-.83-.07-1.46L183.9,253.13l11,5.77v1.31l0,12.35q0,13.08,0,26.16c0,5.12,0,10.24,0,15.36A2,2,0,0,1,193.8,316q-9.41,5.85-18.78,11.77c-2.71,1.7-5.43,3.37-8.11,5.11a1.45,1.45,0,0,1-1.84,0,18.24,18.24,0,0,0-1.69-.9l-25.59-13.33-3.6-1.91c.08-10.81.15-21.55.23-32.51L118,294.56v66.6L89.12,379.41,57.07,362.94a1.67,1.67,0,0,1-.08-.28l0-28.91c0-.12,0-.24,0-.36a.37.37,0,0,0,0-.11l-.1-.11a6.09,6.09,0,0,0-.62.32q-6.6,4.14-13.18,8.3L20.47,356q-6.54,4.11-13.08,8.23c-.32.2-.72.32-.85.78Zm418.42-93.18a20.87,20.87,0,0,0,.34-2.4q.13-10.12.22-20.26l.24-27.46L509.5,238q.12-13.84.24-27.7c0-3.8,0-7.6,0-11.39q.09-10.68.2-21.35v-.12c.08-7.91.15-15.82.26-23.74a2.14,2.14,0,0,0-1.33-2.15q-12.63-6.67-25.24-13.41L448.39,119.4,404.35,96Q386.67,86.56,369,77.17l-42.88-22.8a6.63,6.63,0,0,0-2.24-1.06,6.51,6.51,0,0,0-2.39.68c-.8.26-1.59.55-2.67.93L506.4,154.68v1.41l-.24,23.73-.24,27.34-.24,27.46-.24,27.22q-.12,14.93-.24,29.86c0,7.63-.05,15.27-.09,22.91,0,.54,0,1.08-.07,1.78ZM88.62,229.44c3.09-1.68,23.31-14.56,24-15.32L86.14,200.5,62,215.74Zm101.22,29.63-26.35-13.75-23.84,15L166,274.05ZM231.76,30c.16-.07.24-.09.31-.13L253.51,16a3.24,3.24,0,0,0,.51-.56l-25-12.61-4.6,3L207.66,16.64c-.28.18-.52.4-.87.68Z"/>
      <path class="cls-2" d="M336.55,188.86l2.51-3.08c4.89-6,9.73-12.07,14.7-18,3-3.58,6.17-7,9.33-10.46a63.12,63.12,0,0,1,9.63-8.62,26.62,26.62,0,0,1,8.94-4.46,13,13,0,0,1,10.74,1.88,29.18,29.18,0,0,1,6,5.32,85.93,85.93,0,0,1,9.85,14.43c4,7.12,7.57,14.49,11,21.92q2.92,6.34,5.82,12.73l.5,1.13c-1.46,1.48-2.85,3-4.32,4.37-2.8,2.68-5.59,5.37-8.49,7.94A59.8,59.8,0,0,1,399.85,223a24.32,24.32,0,0,1-7.59,2.47,19.46,19.46,0,0,1-7.36-.5,44.27,44.27,0,0,1-13.21-6.07A103,103,0,0,1,359,209.09c-5.46-4.92-10.87-9.9-16.32-14.84-1.56-1.42-3.18-2.79-4.77-4.18Z"/>
      <path class="cls-2" d="M279.32,189l2.15-1.33c.91,1.06,1.78,2.1,2.68,3.11a52.52,52.52,0,0,0,10.49,9.42,26.87,26.87,0,0,0,4.91,2.47,13.68,13.68,0,0,0,9.82,0c.49-.17,1-.4,1.46-.56a1.27,1.27,0,0,0,.95-1.43c0-4.6,0-9.19,0-13.79q0-3.18.05-6.36c0-.2,0-.39,0-.72,7.05,1.8,12.95,5.57,18.65,9.88-.19.26-.31.45-.46.62a95.46,95.46,0,0,1-11.88,11.48,32.89,32.89,0,0,1-8.63,5.08,14.45,14.45,0,0,1-12.15-.8,33.65,33.65,0,0,1-6.56-4.38,79.62,79.62,0,0,1-11.28-12.22A4.23,4.23,0,0,1,279.32,189Z"/>
      <path class="cls-1" d="M90,408.54,6.54,365c.13-.46.53-.58.85-.78q6.53-4.12,13.08-8.23L43,341.79q6.59-4.16,13.18-8.3a6.09,6.09,0,0,1,.62-.32l.1.11a.37.37,0,0,1,0,.11c0,.12,0,.24,0,.36l0,28.91a1.67,1.67,0,0,0,.08.28l32.05,16.47L118,361.16v-66.6l16.38-10.3c-.08,11-.15,21.7-.23,32.51l3.6,1.91L163.38,332a18.24,18.24,0,0,1,1.69.9,1.45,1.45,0,0,0,1.84,0c2.68-1.74,5.4-3.41,8.11-5.11q9.39-5.89,18.78-11.77a2,2,0,0,0,1.06-1.92c0-5.12,0-10.24,0-15.36q0-13.08,0-26.16l0-12.35V258.9l-11-5.77,18.19-11.45c0,.63.07,1,.07,1.46,0,5.36,0,10.72,0,16.08,0,5.12.08,10.23.13,15.35,0,.16,0,.32,0,.57l30.59,15.48q13.56-8.73,27.21-17.55V230.23l61.62,32.15c0,.16,0,.2,0,.23s0,.09-.06.1Z"/>
      <path class="cls-1" d="M508.46,315.36l-3.42,1c0-.7.07-1.24.07-1.78,0-7.64.05-15.28.09-22.91q.1-14.94.24-29.86l.24-27.22.24-27.46.24-27.34.24-23.73v-1.41L318.78,54.92c1.08-.38,1.87-.67,2.67-.93a6.51,6.51,0,0,1,2.39-.68,6.63,6.63,0,0,1,2.24,1.06L369,77.17q17.7,9.4,35.39,18.79l44,23.44,35.28,18.75q12.61,6.71,25.24,13.41a2.14,2.14,0,0,1,1.33,2.15c-.11,7.92-.18,15.83-.26,23.74v.12q-.11,10.68-.2,21.35c0,3.79,0,7.59,0,11.39q-.11,13.86-.24,27.7l-.24,27.23L509,292.7q-.09,10.13-.22,20.26A20.87,20.87,0,0,1,508.46,315.36Z"/>
      <path class="cls-1" d="M88.62,229.44,62,215.74,86.14,200.5l26.48,13.62C111.93,214.88,91.71,227.76,88.62,229.44Z"/>
      <path class="cls-1" d="M189.84,259.07l-23.83,15L139.65,260.3l23.84-15Z"/>
      <path class="cls-1" d="M231.76,30l-25-12.64c.35-.28.59-.5.87-.68L224.47,5.79l4.6-3,25,12.61a3.24,3.24,0,0,1-.51.56L232.07,29.83C232,29.87,231.92,29.89,231.76,30Z"/>
    </g>
    <path class="cls-1" d="M276.18,190.6l2.46-1.52c1.05,1.21,2,2.4,3.08,3.56a59.91,59.91,0,0,0,12,10.79,31,31,0,0,0,5.63,2.84,15.72,15.72,0,0,0,11.26-.05l2-.74,8.1-.26a37.92,37.92,0,0,1-9.9,5.82,16.56,16.56,0,0,1-13.92-.92,38,38,0,0,1-7.52-5,91.8,91.8,0,0,1-12.94-14A5.41,5.41,0,0,1,276.18,190.6Z"/>
  </g>
</svg>
