<svg id="Layer_1" data-name="Layer 1" xmlns="http://www.w3.org/2000/svg" xmlns:xlink="http://www.w3.org/1999/xlink" viewBox="0 0 508.51 412.56">
  <defs>
    <style>
      .cls-1 {
        fill: none;
      }

      .cls-2 {
        clip-path: url(#clip-path);
      }

      .cls-3 {
        fill: #fff;
      }

      .cls-4 {
        fill: #1617cb;
      }
    </style>
    <clipPath id="clip-path">
      <rect class="cls-1" x="-278.51" y="3327.22" width="851.55" height="627.69"/>
    </clipPath>
  </defs>
  <title>Assets</title>
  <g class="cls-2">
    <image width="3360" height="9372" transform="translate(-1193.34 395.84) scale(0.54)" xlink:href="Links/screencapture-brandfolder-workbench-suite-2019-08-05-21_58_23.png"/>
  </g>
  <g>
    <path class="cls-3" d="M311.76,276.94c.73,1.47,2.5,5.16,1,8.1-2.17,4.31-10,4.42-12.95,4.46-19.35.27-78.57-29.15-90.72-35.24q3.84-20.44,7.69-40.9l15.8-5.87,3.06-48.09V115.48c5.35,5.89,11.53,11.75,16.87,17.64,0,8.49,0,17,0,25.48C284.52,222.33,307.68,268.71,311.76,276.94Z"/>
    <path class="cls-3" d="M.07,308.65l1.14,14.6L125.7,401.78,154.39,409l32-6.87,317.8-188.26,3.14-5.88,1.14-15.35Q343.3,290.71,178.17,388.84l-47.2,1Z"/>
    <g>
      <path class="cls-3" d="M235.65,159.41c-.39.2-.68.34-1,.5l-9.84,5.7-78.72,45.56L75.21,252.22Q46.5,268.84,17.8,285.44a53,53,0,0,0-9.91,6.94A25.48,25.48,0,0,0,1.07,302,14.17,14.17,0,0,0,3.4,316.63a21.13,21.13,0,0,0,5.71,4.81l8.79,5.27,38.3,22.91Q89,369.27,121.85,388.9c2.82,1.69,5.6,3.49,8.55,4.94,7.15,3.53,14.87,4.47,22.72,4.45a70.53,70.53,0,0,0,11.94-1.11A67.82,67.82,0,0,0,184.48,391c4-2.07,7.93-4.41,11.86-6.69q28.1-16.23,56.15-32.49l54.74-31.68,51.59-29.87,67.63-39.12,61.43-35.57a79.39,79.39,0,0,0,10.64-6.77,27.87,27.87,0,0,0,8.62-10.69c2.25-5.35,1.77-10.4-1.8-15.05a19.67,19.67,0,0,0-5.51-4.85c-3.92-2.37-7.86-4.71-11.79-7.06l-50.6-30.29q-26.26-15.72-52.54-31.44c-2.53-1.51-5.07-3.07-7.73-4.32-5.82-2.71-12.07-3.66-18.42-4a70.89,70.89,0,0,0-15.66,1.14,68.33,68.33,0,0,0-22.68,8,6.8,6.8,0,0,1-.79.32c0-.65,0-1.19,0-1.73.29-5.37.6-10.73.88-16.1.3-5.7.56-11.41.85-17.11.11-2.21.29-4.41.39-6.61a30.23,30.23,0,0,0-.42-8.22,11.63,11.63,0,0,0-5.91-8.23q-24.46-13.22-48.86-26.54L220.88,1.23A9.81,9.81,0,0,0,217.34.09a14.92,14.92,0,0,0-7.44,1.18,36.7,36.7,0,0,0-12.28,8.66,64.09,64.09,0,0,0-12.07,17.24c-3.11,6.42-5.35,13.08-5.6,20.31-.17,4.83-.5,9.66-.75,14.48-.28,5.58-.54,11.16-.82,16.74-.09,1.87-.18,3.74-.28,5.62-.23,4.28-.44,8.57-.71,12.86a1.5,1.5,0,0,0,.94,1.64c5.25,2.81,10.48,5.67,15.71,8.52l62.57,34,5.1,2.8c-.38.26-.64.46-.93.62-2.41,1.41-4.8,2.84-7.25,4.18a1.74,1.74,0,0,0-1,1.76q0,29.22,0,58.45c0,.37,0,.73.06,1.07,1.34.31,2.61.55,3.85.88a28.13,28.13,0,0,1,11.28,5.41,10.4,10.4,0,0,1,4.07,8.23c0,8.1-.07,16.19,0,24.29a10.41,10.41,0,0,1-3.36,7.91l-.88.89,41.08,23.9c-.82,1.38-1.55,2.62-2.31,3.92l-1.44-.83q-20.25-11.78-40.5-23.59a2.41,2.41,0,0,0-2.51-.12,39.27,39.27,0,0,1-12.05,3.09,53,53,0,0,1-10.61.05,40.61,40.61,0,0,1-13.7-3.59,18.69,18.69,0,0,1-6.75-5.06,8.39,8.39,0,0,1-2.09-5.36c0-8.81,0-17.61,0-26.42a8.13,8.13,0,0,1,.44-2.43,10.19,10.19,0,0,1,2.92-4.29,23.29,23.29,0,0,1,8.72-5c2.24-.75,4.54-1.31,6.89-2Zm271.68,48.52c-.35.3-.6.5-.83.72a51.55,51.55,0,0,1-8.86,6.49l-24.54,14.2-84.64,49-75.55,43.74L247,360.22l-47.23,27.34c-3.79,2.19-7.51,4.5-11.41,6.45a83.22,83.22,0,0,1-33.19,8.41,71.86,71.86,0,0,1-16.82-1,47.09,47.09,0,0,1-16-5.72q-28.38-17-56.8-34l-56.81-34-7.48-4.49c.22,1.25.33,2.32.61,3.33a16.62,16.62,0,0,0,6.3,8.93,61,61,0,0,0,5.75,3.75q25.77,15.45,51.56,30.87l60.47,36.19a37.13,37.13,0,0,0,8.06,3.61,62.35,62.35,0,0,0,21.81,2.56,82.86,82.86,0,0,0,14-1.83A70.28,70.28,0,0,0,190,403q28.62-16.53,57.2-33.11l85.19-49.32L407.71,277q37.83-21.9,75.67-43.81c3.71-2.15,7.43-4.3,11-6.66a32.94,32.94,0,0,0,9.69-9.63A20,20,0,0,0,507.33,207.93Zm-254.68,7.38a2.07,2.07,0,0,0-.11.4c0,1.5-.07,3,0,4.5.08,1.8-.76,2.6-2.28,3.14a5.87,5.87,0,0,1-1.59.34c-2.29.11-4.58.27-6.87.21a18,18,0,0,1-4.28-.74,2.38,2.38,0,0,1-1.82-2.65c.05-1.25,0-2.5,0-3.75,0-.44,0-.87-.06-1.32a4.3,4.3,0,0,0-.52,0c-.37.08-.73.16-1.09.26a20,20,0,0,0-8,3.93c-3,2.61-3.12,5.94-.29,8.67a14.29,14.29,0,0,0,2.8,2.07,24.84,24.84,0,0,0,8,2.77,41,41,0,0,0,13.93.23,28.21,28.21,0,0,0,8.79-2.7,11.64,11.64,0,0,0,4.49-3.71,4.8,4.8,0,0,0,.62-4.4,6.68,6.68,0,0,0-2.07-2.93A21.8,21.8,0,0,0,252.65,215.31Z"/>
      <path class="cls-4" d="M235.65,159.41v50.76c-2.35.66-4.65,1.22-6.89,2a23.29,23.29,0,0,0-8.72,5,10.19,10.19,0,0,0-2.92,4.29,8.13,8.13,0,0,0-.44,2.43c0,8.81,0,17.61,0,26.42a8.39,8.39,0,0,0,2.09,5.36,18.69,18.69,0,0,0,6.75,5.06,40.61,40.61,0,0,0,13.7,3.59,53,53,0,0,0,10.61-.05,39.27,39.27,0,0,0,12.05-3.09,2.41,2.41,0,0,1,2.51.12q20.24,11.84,40.5,23.59l1.44.83c.76-1.3,1.49-2.54,2.31-3.92l-41.08-23.9.88-.89a10.41,10.41,0,0,0,3.36-7.91c-.06-8.1,0-16.19,0-24.29a10.4,10.4,0,0,0-4.07-8.23,28.13,28.13,0,0,0-11.28-5.41c-1.24-.33-2.51-.57-3.85-.88,0-.34-.06-.7-.06-1.07q0-29.22,0-58.45a1.74,1.74,0,0,1,1-1.76c2.45-1.34,4.84-2.77,7.25-4.18.29-.16.55-.36.93-.62l-5.1-2.8-62.57-34c-5.23-2.85-10.46-5.71-15.71-8.52a1.5,1.5,0,0,1-.94-1.64c.27-4.29.48-8.58.71-12.86.1-1.88.19-3.75.28-5.62.28-5.58.54-11.16.82-16.74.25-4.82.58-9.65.75-14.48.25-7.23,2.49-13.89,5.6-20.31A64.09,64.09,0,0,1,197.62,9.93,36.7,36.7,0,0,1,209.9,1.27,14.92,14.92,0,0,1,217.34.09a9.81,9.81,0,0,1,3.54,1.14l45.67,24.84Q291,39.36,315.41,52.61a11.63,11.63,0,0,1,5.91,8.23,30.23,30.23,0,0,1,.42,8.22c-.1,2.2-.28,4.4-.39,6.61-.29,5.7-.55,11.41-.85,17.11-.28,5.37-.59,10.73-.88,16.1,0,.54,0,1.08,0,1.73a6.8,6.8,0,0,0,.79-.32,68.33,68.33,0,0,1,22.68-8,70.89,70.89,0,0,1,15.66-1.14c6.35.3,12.6,1.25,18.42,4,2.66,1.25,5.2,2.81,7.73,4.32q26.28,15.7,52.54,31.44L488,171.12c3.93,2.35,7.87,4.69,11.79,7.06a19.67,19.67,0,0,1,5.51,4.85c3.57,4.65,4.05,9.7,1.8,15.05a27.87,27.87,0,0,1-8.62,10.69,79.39,79.39,0,0,1-10.64,6.77l-61.43,35.57-67.63,39.12L307.23,320.1l-54.74,31.68Q224.43,368,196.34,384.27c-3.93,2.28-7.82,4.62-11.86,6.69a67.82,67.82,0,0,1-19.42,6.22,70.53,70.53,0,0,1-11.94,1.11c-7.85,0-15.57-.92-22.72-4.45-3-1.45-5.73-3.25-8.55-4.94Q89,369.28,56.2,349.62L17.9,326.71l-8.79-5.27a21.13,21.13,0,0,1-5.71-4.81A14.17,14.17,0,0,1,1.07,302a25.48,25.48,0,0,1,6.82-9.59,53,53,0,0,1,9.91-6.94q28.71-16.59,57.41-33.22l70.92-41.05,78.72-45.56,9.84-5.7C235,159.75,235.26,159.61,235.65,159.41Zm40.88-11.91c.51-.25.87-.41,1.22-.59l11.9-6.36q12.12-6.48,24.23-13c.58-.31,1-.57,1.07-1.36.2-4.53.46-9.06.68-13.6.12-2.45.19-4.91.32-7.36.29-5.49.61-11,.9-16.47.2-4,.37-8,.56-12,.09-1.79.12-3.59.32-5.37a18.1,18.1,0,0,0-.38-6.44c-.82-3.25-2.61-5.71-6-6.49a11.06,11.06,0,0,0-6.15.5,29.53,29.53,0,0,0-10.78,7.06,53.51,53.51,0,0,0-11.23,16,39.78,39.78,0,0,0-3.89,15.75c-.14,4.08-.36,8.16-.58,12.23-.28,5.29-.61,10.57-.9,15.85-.2,3.66-.36,7.32-.57,11-.1,1.83-.27,3.65-.39,5.48C276.71,144,276.64,145.64,276.53,147.5ZM211.4,25.71c0,3.21,0,6.33,0,9.46a1.49,1.49,0,0,0,.94,1.54c2.55,1.34,5,2.77,7.59,4.1A1.7,1.7,0,0,1,221,42.54c0,8.93,0,17.85,0,26.78,0,.36-.05.73-.07,1.08-.26.1-.45.19-.65.25A7.64,7.64,0,0,0,215,75.74a10.48,10.48,0,0,0-.21,6.29c1.69,6.51,5.5,11.17,12.23,12.88,5.55,1.41,10.22-2.36,10.31-8.09a16,16,0,0,0-4.55-11.42,3.7,3.7,0,0,1-1.07-2.76c0-11.68,0-23.36.05-35a2.19,2.19,0,0,0-1.27-2.25q-8.08-4.5-16.06-9.17A3.92,3.92,0,0,0,211.4,25.71ZM344.53,228a65.19,65.19,0,0,0,31.08-7.79A42.31,42.31,0,0,0,390,207.82a26.14,26.14,0,0,0,5-13.56,23.06,23.06,0,0,0-4-14.31,33.1,33.1,0,0,0-11.3-10.23c-7.5-4.39-15.71-6.35-24.29-6.88a66.63,66.63,0,0,0-17.54,1.2,58.27,58.27,0,0,0-23.48,10,35.47,35.47,0,0,0-11.58,13.53,23.5,23.5,0,0,0-2.11,13.63A24.37,24.37,0,0,0,307,214.15a39.32,39.32,0,0,0,15.19,10A59.07,59.07,0,0,0,344.53,228ZM72.1,287.78l114.36,66.35,2.28-3.95L74.39,283.84C73.58,285.23,72.88,286.45,72.1,287.78Zm147.16,45.84L104.89,267.27l-2.26,4L217,337.56Zm59.27-34L164.18,233.28c-.45.77-.81,1.37-1.16,2s-.71,1.28-1.11,2l114.33,66.33Zm-27.9,16.56L136.28,249.84,134,253.79l114.35,66.34Z"/>
      <path class="cls-4" d="M507.33,207.93a20,20,0,0,1-3.25,8.95,32.94,32.94,0,0,1-9.69,9.63c-3.58,2.36-7.3,4.51-11,6.66Q445.55,255.1,407.71,277l-75.37,43.61-85.19,49.32Q218.55,386.46,190,403a70.28,70.28,0,0,1-20.22,7.63,82.86,82.86,0,0,1-14,1.83A62.35,62.35,0,0,1,134,409.92a37.13,37.13,0,0,1-8.06-3.61L65.43,370.12Q39.64,354.7,13.87,339.25a61,61,0,0,1-5.75-3.75,16.62,16.62,0,0,1-6.3-8.93c-.28-1-.39-2.08-.61-3.33l7.48,4.49,56.81,34q28.41,17,56.8,34a47.09,47.09,0,0,0,16,5.72,71.86,71.86,0,0,0,16.82,1A83.22,83.22,0,0,0,188.33,394c3.9-1.95,7.62-4.26,11.41-6.45L247,360.22l65.94-38.16,75.55-43.74,84.64-49,24.54-14.2a51.55,51.55,0,0,0,8.86-6.49C506.73,208.43,507,208.23,507.33,207.93Z"/>
      <path class="cls-4" d="M252.65,215.31a21.8,21.8,0,0,1,9.63,4.32,6.68,6.68,0,0,1,2.07,2.93,4.8,4.8,0,0,1-.62,4.4,11.64,11.64,0,0,1-4.49,3.71,28.21,28.21,0,0,1-8.79,2.7,41,41,0,0,1-13.93-.23,24.84,24.84,0,0,1-8-2.77,14.29,14.29,0,0,1-2.8-2.07c-2.83-2.73-2.68-6.06.29-8.67a20,20,0,0,1,8-3.93c.36-.1.72-.18,1.09-.26a4.3,4.3,0,0,1,.52,0c0,.45,0,.88.06,1.32,0,1.25,0,2.5,0,3.75a2.38,2.38,0,0,0,1.82,2.65,18,18,0,0,0,4.28.74c2.29.06,4.58-.1,6.87-.21a5.87,5.87,0,0,0,1.59-.34c1.52-.54,2.36-1.34,2.28-3.14-.07-1.49,0-3,0-4.5A2.07,2.07,0,0,1,252.65,215.31Z"/>
      <path class="cls-3" d="M276.53,147.5c.11-1.86.18-3.52.29-5.17.12-1.83.29-3.65.39-5.48.21-3.66.37-7.32.57-11,.29-5.28.62-10.56.9-15.85.22-4.07.44-8.15.58-12.23A39.78,39.78,0,0,1,283.15,82a53.51,53.51,0,0,1,11.23-16A29.53,29.53,0,0,1,305.16,59a11.06,11.06,0,0,1,6.15-.5c3.43.78,5.22,3.24,6,6.49a18.1,18.1,0,0,1,.38,6.44c-.2,1.78-.23,3.58-.32,5.37-.19,4-.36,8-.56,12-.29,5.49-.61,11-.9,16.47-.13,2.45-.2,4.91-.32,7.36-.22,4.54-.48,9.07-.68,13.6,0,.79-.49,1-1.07,1.36q-12.12,6.47-24.23,13l-11.9,6.36C277.4,147.09,277,147.25,276.53,147.5Z"/>
      <path class="cls-3" d="M211.4,25.71a3.92,3.92,0,0,1,3,.47q8,4.65,16.06,9.17a2.19,2.19,0,0,1,1.27,2.25c0,11.68,0,23.36-.05,35a3.7,3.7,0,0,0,1.07,2.76,16,16,0,0,1,4.55,11.42c-.09,5.73-4.76,9.5-10.31,8.09-6.73-1.71-10.54-6.37-12.23-12.88a10.48,10.48,0,0,1,.21-6.29,7.64,7.64,0,0,1,5.26-5.09c.2-.06.39-.15.65-.25,0-.35.07-.72.07-1.08,0-8.93,0-17.85,0-26.78a1.7,1.7,0,0,0-1.05-1.73c-2.55-1.33-5-2.76-7.59-4.1a1.49,1.49,0,0,1-.94-1.54C211.42,32,211.4,28.92,211.4,25.71Z"/>
      <path class="cls-3" d="M344.53,228a59.07,59.07,0,0,1-22.37-3.83,39.32,39.32,0,0,1-15.19-10,24.37,24.37,0,0,1-6.35-12.94,23.5,23.5,0,0,1,2.11-13.63,35.47,35.47,0,0,1,11.58-13.53,58.27,58.27,0,0,1,23.48-10,66.63,66.63,0,0,1,17.54-1.2c8.58.53,16.79,2.49,24.29,6.88A33.1,33.1,0,0,1,390.92,180a23.06,23.06,0,0,1,4,14.31,26.14,26.14,0,0,1-5,13.56,42.31,42.31,0,0,1-14.34,12.42A65.19,65.19,0,0,1,344.53,228Zm-.07-2.95c3.11-.31,6.23-.52,9.32-.94a53.83,53.83,0,0,0,19.53-6.56,37.05,37.05,0,0,0,13.08-11.77,22.64,22.64,0,0,0,4-12.17,21.46,21.46,0,0,0-6.08-15.29,34.61,34.61,0,0,0-13.22-8.76,55.31,55.31,0,0,0-23.9-3.55,59.9,59.9,0,0,0-20.55,4.85,41.61,41.61,0,0,0-16.21,12A23.71,23.71,0,0,0,305,196.48a20.78,20.78,0,0,0,4.64,14.29,33.28,33.28,0,0,0,13.76,10.1A57.85,57.85,0,0,0,344.46,225.08Z"/>
      <path class="cls-3" d="M72.1,287.78c.78-1.33,1.48-2.55,2.29-3.94l114.35,66.34-2.28,3.95Z"/>
      <path class="cls-3" d="M219.26,333.62l-2.3,3.94L102.63,271.23l2.26-4Z"/>
      <path class="cls-3" d="M278.53,299.62l-2.29,3.95L161.91,237.24c.4-.7.75-1.34,1.11-2s.71-1.21,1.16-2Z"/>
      <path class="cls-3" d="M250.63,316.18l-2.28,3.95L134,253.79l2.28-3.95Z"/>
      <path class="cls-4" d="M344.46,225.08a57.85,57.85,0,0,1-21.1-4.21,33.28,33.28,0,0,1-13.76-10.1A20.78,20.78,0,0,1,305,196.48a23.71,23.71,0,0,1,5.47-13.58,41.61,41.61,0,0,1,16.21-12A59.9,59.9,0,0,1,347.19,166a55.31,55.31,0,0,1,23.9,3.55,34.61,34.61,0,0,1,13.22,8.76,21.46,21.46,0,0,1,6.08,15.29,22.64,22.64,0,0,1-4,12.17,37.05,37.05,0,0,1-13.08,11.77,53.83,53.83,0,0,1-19.53,6.56C350.69,224.56,347.57,224.77,344.46,225.08Zm-28.34-33,38.14,24.83,24.93-18.13-38.12-24.83Z"/>
      <path class="cls-3" d="M316.12,192.05l24.95-18.13,38.12,24.83-24.93,18.13Zm53.59,5.23.07-.14-26-16.92-.19.15q1.78,7.6,3.6,15.27ZM326.35,194l-.08.14L351,210.2c-.93-3.94-1.8-7.6-2.65-11.21l-5-.41-.88-3.42Zm29.51,17.27,14.39-10.46-.06-.25c-5.65-.36-11.29-.89-17.12-1.18C354,203.41,354.91,207.23,355.86,211.26Zm-17-31.28-14.56,10.58c6,.49,11.6.89,17.37,1.28C340.69,187.8,339.79,184,338.84,180Z"/>
      <path class="cls-4" d="M369.71,197.28l-22.5-1.64q-1.81-7.68-3.6-15.27l.19-.15,26,16.92Z"/>
      <path class="cls-4" d="M326.35,194l16,1.17.88,3.42,5,.41c.85,3.61,1.72,7.27,2.65,11.21l-24.68-16.07Z"/>
      <path class="cls-4" d="M355.86,211.26c-.95-4-1.84-7.85-2.79-11.89,5.83.29,11.47.82,17.12,1.18l.06.25Z"/>
      <path class="cls-4" d="M338.84,180c1,4,1.85,7.82,2.81,11.86-5.77-.39-11.42-.79-17.37-1.28Z"/>
    </g>
  </g>
</svg>
