<svg id="Layer_1" data-name="Layer 1" xmlns="http://www.w3.org/2000/svg" xmlns:xlink="http://www.w3.org/1999/xlink" viewBox="0 0 500 105"><defs><style>.cls-1{fill:#071c2c;}.cls-2{fill:url(#linear-gradient);}</style><linearGradient id="linear-gradient" x1="45.49" y1="148.78" x2="45.49" y2="23.22" gradientUnits="userSpaceOnUse"><stop offset="0" stop-color="#79d1f0"/><stop offset="0.39" stop-color="#70c9c1"/><stop offset="0.47" stop-color="#63b3bc"/><stop offset="0.63" stop-color="#4c8bb2"/><stop offset="0.78" stop-color="#3b6eac"/><stop offset="0.91" stop-color="#315ca7"/><stop offset="1" stop-color="#2d56a6"/></linearGradient></defs><title>Artboard 41</title><path class="cls-1" d="M116.45,60.08H106l-1.49,3.6H96.72l14.54-30.41c.13-.31.4-.31.53,0l14.5,30.41H118Zm-8-5.8h5.4l-2.72-6.33Z"/><path class="cls-1" d="M144.17,40.52h-7.91V33.8h23.82v6.72h-7.91V63.68h-8Z"/><path class="cls-1" d="M177.18,33.49c0-.31.22-.26.4,0L191.9,49.53,206,33.45c.18-.22.35-.26.4,0l1.76,30.19h-7.87l-.7-12.74-7.47,8.66a.25.25,0,0,1-.4,0l-7.78-8.7-.7,12.79h-7.82Z"/><path class="cls-1" d="M224.28,48.74c0-9,7.43-15.29,16-15.29s16,6.28,16,15.29-7.43,15.34-16,15.34S224.28,57.75,224.28,48.74Zm23.9,0c0-4.7-2.86-8.35-7.87-8.35s-7.87,3.65-7.87,8.35,2.86,8.39,7.87,8.39S248.19,53.44,248.19,48.74Z"/><path class="cls-1" d="M270.12,58.58l5.8-4.35a7.56,7.56,0,0,0,6.24,3.25c2.37,0,3.78-.7,3.78-2.37,0-1.27-1-1.89-2.94-2.55l-3.52-1.19c-4.35-1.45-7.43-4.09-7.43-9,0-5.89,4.88-8.92,10.19-8.92s8.44,1.89,10.19,4l-4.57,4.79A6.78,6.78,0,0,0,282.68,40c-1.93,0-2.9.88-2.9,2.07s.66,1.71,2.11,2.2l4,1.32c6,2,8,4.83,8,9.05,0,5.49-3.43,9.45-11.34,9.45C275.78,64.12,272,61,270.12,58.58Z"/><path class="cls-1" d="M318.67,63.68h-8V33.8h12.08c7.6,0,11.82,4.61,11.82,10.72s-4.22,10.59-11.82,10.59h-4.09Zm3.69-15.25c2.73,0,4.17-1.45,4.17-3.91s-1.45-4-4.17-4h-3.69v7.87Z"/><path class="cls-1" d="M369.82,33.8h8V63.68h-8V52H359.45V63.68h-8V33.8h8V45.27h10.37Z"/><path class="cls-1" d="M396.19,33.8h21v6.72h-13v4.92H415v6.37H404.18V57h13.58v6.72H396.19Z"/><path class="cls-1" d="M442.81,63.68h-8V33.8H446.9c7.6,0,11.82,4.48,11.82,10.59a9.06,9.06,0,0,1-5.45,8.7l6.2,10.59h-8.66l-5.27-9.36h-2.72Zm3.69-15.47c2.73,0,4.17-1.36,4.17-3.82s-1.45-3.82-4.17-3.82h-3.69v7.65Z"/><path class="cls-1" d="M476.42,33.8h21v6.72h-13v4.92h10.81v6.37H484.42V57H498v6.72H476.42Z"/><path class="cls-2" d="M55.57,89.3H33.77a9.71,9.71,0,0,0-9,6h0a9.71,9.71,0,0,1-9,6H11.72A9.71,9.71,0,0,1,3,87.38L42.56,5.59a3.32,3.32,0,0,1,6,0L88,87.39a9.71,9.71,0,0,1-8.76,13.89H73.51a9.71,9.71,0,0,1-8.89-5.81l-.16-.37A9.71,9.71,0,0,0,55.57,89.3Z"/></svg>