<?xml version="1.0" encoding="UTF-8"?>
<svg width="188px" height="32px" viewBox="0 0 188 32" version="1.1" xmlns="http://www.w3.org/2000/svg" xmlns:xlink="http://www.w3.org/1999/xlink">
    <!-- Generator: Sketch 52.4 (67378) - http://www.bohemiancoding.com/sketch -->
    <title>Logo</title>
    <desc>Created with Sketch.</desc>
    <g id="Page-1" stroke="none" stroke-width="1" fill="none" fill-rule="evenodd">
        <g id="Homepage-Redesign-11/14" transform="translate(-214.000000, -68.000000)">
            <g id="Group">
                <g id="Logo" transform="translate(216.000000, 68.000000)">
                    <path d="M58.986,29.084 L50.712,29.084 L45.378,9.344 L53.442,9.344 L55.332,21.65 L58.062,9.302 L66.672,9.302 L69.276,21.272 L70.872,9.344 L79.062,9.344 L73.644,29.084 L65.328,29.084 L62.22,16.988 L58.986,29.084 Z M92.8118,23.75 L92.8118,20.768 C89.7458,21.062 88.6118,21.608 88.6118,23.036 C88.6118,24.044 89.4518,24.674 90.5018,24.674 C91.5938,24.674 92.3498,24.254 92.8118,23.75 Z M93.0218,26.48 L92.8958,26.48 C91.5938,28.076 90.1238,29.63 87.0998,29.63 C83.8658,29.63 81.2618,27.236 81.2618,24.254 C81.2618,20.432 84.1598,17.45 92.8118,17.324 L92.8118,17.03 C92.8118,15.518 91.8878,14.762 89.8298,14.762 C87.8138,14.762 85.5038,15.56 82.9838,16.652 L81.3038,11.066 C83.5718,9.974 87.0158,8.714 91.2158,8.714 C98.7338,8.714 100.9598,12.2 100.8338,17.786 L100.7918,22.364 C100.7918,23.582 101.0858,23.666 102.2198,23.834 L101.4218,29.336 C96.5918,30.05 94.1138,28.874 93.0218,26.48 Z M112.9456,29 L104.9236,29 L104.9236,1.49 L112.9456,0.566 L112.9456,29 Z M129.9294,9.428 L129.9294,1.49 L137.9514,0.566 L137.9514,29 L129.9294,29 L129.9294,26.858 C128.7954,28.076 126.9474,29.588 124.3854,29.588 C119.8494,29.588 116.1534,25.85 116.1534,19.466 C116.1534,12.662 120.9414,8.756 125.9394,8.756 C127.3674,8.756 128.7114,9.008 129.9294,9.428 Z M129.9294,14.972 C129.3834,14.678 128.5854,14.426 127.6194,14.426 C125.4354,14.426 124.1334,16.148 124.1334,19.004 C124.1334,21.86 125.5614,23.414 127.3674,23.414 C128.5854,23.414 129.2994,22.994 129.9294,22.322 L129.9294,14.972 Z M148.8872,21.146 L148.8872,21.188 C149.1812,23.162 150.6092,24.086 153.4652,24.086 C155.6492,24.086 158.0012,23.246 160.1432,22.028 L160.7732,27.992 C158.6732,28.958 155.6492,29.588 152.6252,29.588 C145.5692,29.588 141.1172,26.102 141.1172,19.298 C141.1172,12.83 145.5692,8.714 152.2052,8.714 C158.2532,8.714 161.4452,12.2 161.4452,17.24 C161.4452,18.29 161.2772,20.012 161.0252,20.852 L148.8872,21.146 Z M148.8872,17.534 L154.0112,17.534 C154.0532,17.366 154.0532,17.24 154.0532,17.114 C154.0532,15.056 153.2972,13.88 151.7432,13.88 C150.1052,13.88 149.0552,15.434 148.8872,17.534 Z M185.695,29 L177.673,29 L177.673,17.744 C177.673,15.896 176.749,15.308 175.531,15.308 C174.397,15.308 173.473,15.854 172.801,16.484 L172.801,29 L164.779,29 L164.779,9.848 L172.801,8.924 L172.801,12.284 C174.481,10.184 176.833,8.714 179.479,8.714 C183.385,8.714 185.695,11.318 185.695,15.476 L185.695,29 Z" id="walden" fill="#473FA9"></path>
                    <g id="Group" transform="translate(0.000000, 8.000000)" fill-rule="nonzero" stroke="#473FA9" stroke-linecap="round" stroke-width="3">
                        <path d="M0,22 C7.26096248,20.6982719 9.16471804,19.4946265 8.45412089,6.87411827 C8.4535552,6.86407133 7.05690176,-2.14958514 4.64846414,0.481181617 C3.63662371,1.58642767 3.50591159,3.94906985 3.43727736,5.83037351 C3.24574533,11.080377 4.86773019,14.5801949 6.95805569,16.4673307 C9.67243959,18.9178635 13.9849443,17.2558331 15.3333333,14.5687692 C16.2882441,12.6658272 18.2278028,0.481181617 15.3333333,0.481181617 C12.6666667,0.481181617 12.8707497,5.47891947 12.6666667,6.87411827 C11.1399268,17.3115659 17.3333333,19.0938529 19.3333333,19.0938529 C19.8989073,19.0938529 24,20.6010456 26,15.7697977 C28.1139908,10.663191 27.3206087,1.41830729 24.6666667,1.41830729 C20.0023883,1.41830729 22,7.78821273 22.6666667,12.5580105 C23.2288311,16.5801261 30.6666667,20.6010456 36,14.5687692" id="Path-5"></path>
                        <polyline id="Line-3" stroke-linejoin="round" points="33 11 38 13 38 19"></polyline>
                    </g>
                </g>
            </g>
        </g>
    </g>
</svg>